Coordinates
nRows=11
nColumns=24

# SIMM Motion File Header:
name Coordinates
datacolumns 24
datarows 11
otherdata 1
range 0.72933000000000003000 0.73933000000000004000
endheader
time	pelvis_tx	pelvis_ty	pelvis_tz	pelvis_tilt	pelvis_list	pelvis_rotation	hip_flexion_r	hip_adduction_r	hip_rotation_r	knee_angle_r	ankle_angle_r	subtalar_angle_r	mtp_angle_r	hip_flexion_l	hip_adduction_l	hip_rotation_l	knee_angle_l	ankle_angle_l	subtalar_angle_l	mtp_angle_l	lumbar_extension	lumbar_bending	lumbar_rotation
      0.72933000000000003000	      1.38915842758251280000	      0.79616461394086979000	     -0.23509517088038759000	     -6.03537366678577760000	      3.94791144240757590000	      0.50856983456880656000	     22.28181694598865500000	     -4.40369434133522030000	      2.49565155074428930000	    -59.13931236082703400000	    -11.41966987055198100000	     -0.00000000000020615640	      0.00000000000028734975	     13.42658903200035800000	      8.12434426288767140000	     -1.23126484397804490000	    -16.29917564168199100000	      7.12300992037817340000	      0.00000000000007382221	     -0.00000000000032315716	      3.27354042184671230000	     -4.81372979061479890000	      1.01654506296129980000
      0.73033000000000003000	      1.39040399822918580000	      0.79626173367781816000	     -0.23512853959237956000	     -6.04377567382968910000	      3.90692434182794910000	      0.52292491486881376000	     22.47754192486314300000	     -4.35915827788413420000	      2.53458836202885650000	    -59.05821248601899500000	    -11.27637362844273000000	     -0.00000000000020719411	      0.00000000000028926726	     13.28383165202152900000	      8.09882057883624820000	     -1.21091400720725400000	    -16.20624243175501900000	      7.16819760589916650000	      0.00000000000007410386	     -0.00000000000032395806	      3.26263729448388860000	     -4.74444182739993360000	      0.96740818250401517000
      0.73133000000000004000	      1.39164963447463870000	      0.79635763566848672000	     -0.23516086157100821000	     -6.05195138859121770000	      3.86602425435613870000	      0.53721964887349860000	     22.67221714337891200000	     -4.31470552052823830000	      2.57278332842794110000	    -58.97450499078753700000	    -11.13367688468380800000	     -0.00000000000020823358	      0.00000000000029119522	     13.14070406581901600000	      8.07324664249063420000	     -1.18982810926459950000	    -16.11309370471897800000	      7.21434223956303460000	      0.00000000000007438152	     -0.00000000000032474474	      3.25145893060558770000	     -4.67551773425988330000	      0.91878812946020083000
      0.73233000000000004000	      1.39289546751643220000	      0.79644988442031628000	     -0.23519004334954691000	     -6.05944822650559440000	      3.82538520620777780000	      0.55133334399221634000	     22.86374308081851600000	     -4.27050268145791720000	      2.60875276017057620000	    -58.88297463428578000000	    -10.99277863597587600000	     -0.00000000000020927833	      0.00000000000029315455	     12.99646586094543800000	      8.04752194926244970000	     -1.16653702780635340000	    -16.01929842635574300000	      7.26335771765553150000	      0.00000000000007464721	     -0.00000000000032548872	      3.23945485718085550000	     -4.60768525134428050000	      0.87171855865679793000
      0.73333000000000004000	      1.39414130055822570000	      0.79654213317214595000	     -0.23521922512808563000	     -6.06694506441997120000	      3.78474615805941640000	      0.56544703911093408000	     23.05526901825812300000	     -4.22629984238759620000	      2.64472219191321180000	    -58.79144427778402400000	    -10.85188038726794300000	     -0.00000000000021032307	      0.00000000000029511388	     12.85222765607186100000	      8.02179725603426700000	     -1.14324594634810730000	    -15.92550314799250800000	      7.31237319574802850000	      0.00000000000007491290	     -0.00000000000032623270	      3.22745078375612370000	     -4.53985276842867870000	      0.82464898785339491000
      0.73433000000000004000	      1.39538755116851680000	      0.79663110738645315000	     -0.23524578714389288000	     -6.07348131010857540000	      3.74445619548508810000	      0.57977890214826788000	     23.24296635714615500000	     -4.18263910717477220000	      2.67830356670924980000	    -58.69196598193888500000	    -10.70915497844247400000	     -0.00000000000021138723	      0.00000000000029709175	     12.70658936679682500000	      7.99602275641659240000	     -1.11748670034793300000	    -15.83099402076209500000	      7.36110478530062820000	      0.00000000000007516673	     -0.00000000000032693956	      3.21428075748563070000	     -4.47323798708602730000	      0.77870649632551214000
      0.73533000000000004000	      1.39663394096830680000	      0.79671899008825287000	     -0.23527147590545630000	     -6.07969735838858850000	      3.70428259476877080000	      0.59418348782514030000	     23.42938749651699100000	     -4.13915907324777970000	      2.71108892252308880000	    -58.58983837297929400000	    -10.56582051624449500000	     -0.00000000000021245787	      0.00000000000029907580	     12.56048438272130200000	      7.97023165466908880000	     -1.09090473283378330000	    -15.73624694390928800000	      7.40974174533992790000	      0.00000000000007541662	     -0.00000000000032763406	      3.20072208026655100000	     -4.40702910626769380000	      0.73313969788946909000
      0.73633000000000004000	      1.39788052589406610000	      0.79680593978795367000	     -0.23529647182555086000	     -6.08553689101057320000	      3.66424265861148330000	      0.60876179304039091000	     23.61441735581912800000	     -4.09592589427108590000	      2.74310035748687530000	    -58.48515397496652900000	    -10.42103319036205600000	     -0.00000000000021353424	      0.00000000000030105409	     12.41385917910555600000	      7.94444275391022360000	     -1.06350980796747740000	    -15.64123901281846200000	      7.45720960220900330000	      0.00000000000007567151	     -0.00000000000032834992	      3.18670934901337470000	     -4.34123792709642320000	      0.68781989389951048000
      0.73733000000000004000	      1.39912769619773210000	      0.79689009048135773000	     -0.23531938922123893000	     -6.09024687665847430000	      3.62460371613128410000	      0.62386125687077520000	     23.79527337491516500000	     -4.05343328014528300000	      2.77279002990050930000	    -58.37279920979428000000	    -10.27188727342625200000	     -0.00000000000021462783	      0.00000000000030301508	     12.26567331686914600000	      7.91866045611727640000	     -1.03367601104470740000	    -15.54544851901357900000	      7.50117014956741280000	      0.00000000000007594143	     -0.00000000000032912988	      3.17133445565791040000	     -4.27669985286633820000	      0.64324107324780333000
      0.73833000000000004000	      1.40037486650139820000	      0.79697424117476190000	     -0.23534230661692698000	     -6.09495686230637550000	      3.58496477365108520000	      0.63896072070115950000	     23.97612939401120300000	     -4.01094066601948020000	      2.80247970231414320000	    -58.26044444462203100000	    -10.12274135649044700000	     -0.00000000000021572142	      0.00000000000030497607	     12.11748745463273600000	      7.89287815832432930000	     -1.00384221412193740000	    -15.44965802520869900000	      7.54513069692582320000	      0.00000000000007621134	     -0.00000000000032990985	      3.15595956230244660000	     -4.21216177863625330000	      0.59866225259609618000
      0.73933000000000004000	      1.40162292541268440000	      0.79705498376185713000	     -0.23536297204815149000	     -6.09817444368292700000	      3.54582476191399780000	      0.65499420784393636000	     24.15138194951714500000	     -3.96950137555927500000	      2.82932849250967820000	    -58.13824351965529000000	     -9.96699487927669910000	     -0.00000000000021680356	      0.00000000000030681913	     11.96729762376273100000	      7.86704594426884900000	     -0.97098838132152443000	    -15.35285067484550800000	      7.58189835848848230000	      0.00000000000007648036	     -0.00000000000033069918	      3.13879506349384220000	     -4.14920535462014330000	      0.55473941983959385000
